<?xml version="1.0" encoding="utf-8"?>
<!-- Generator: Adobe Illustrator 16.0.0, SVG Export Plug-In . SVG Version: 6.00 Build 0)  -->
<!DOCTYPE svg PUBLIC "-//W3C//DTD SVG 1.1//EN" "http://www.w3.org/Graphics/SVG/1.1/DTD/svg11.dtd">
<svg version="1.1" id="Making_by_NICF-Nettie" xmlns="http://www.w3.org/2000/svg" xmlns:xlink="http://www.w3.org/1999/xlink"
	 x="0px" y="0px" width="1000px" height="354.853px" viewBox="0 0 1000 354.853" enable-background="new 0 0 1000 354.853"
	 xml:space="preserve">
<g id="On_Elm_Street">
	<g id="S">
	</g>
	<g id="R">
	</g>
	<g id="E_2_">
	</g>
	<g id="E_1_">
	</g>
	<g id="T_1_">
	</g>
	<g id="T">
	</g>
	<g id="M">
	</g>
	<g id="L">
	</g>
	<g id="E">
	</g>
	<g id="N">
	</g>
	<g id="O">
	</g>
</g>
<g id="A_Nightmare">
	<g>
		<g>
			<path fill="#E31C23" d="M756.806,245.121h-15.477c-0.28-1.112-0.598-1.909-0.955-2.391c-1.066-1.389-2.947-2.086-5.641-2.086
				c-1.525,0-2.798,0.278-3.813,0.834c-1.067,0.608-1.603,1.442-1.603,2.505c0,0.935,0.585,1.669,1.754,2.2
				c0.687,0.303,2.822,0.922,6.404,1.857c5.72,1.468,9.493,2.58,11.324,3.338c6.784,2.883,10.178,7.511,10.178,13.882
				c0,3.819-1.258,7.221-3.773,10.205c-4.169,4.931-10.624,7.396-19.368,7.396c-6.836,0-12.388-1.479-16.659-4.439
				c-4.753-3.285-7.116-7.786-7.089-13.502h15.82c0.253,1.391,0.571,2.403,0.953,3.034c1.22,1.998,3.584,2.997,7.092,2.997
				c2.057,0,3.76-0.343,5.107-1.025c1.321-0.684,1.981-1.682,1.981-2.995c0-1.189-0.558-2.061-1.677-2.617
				c-0.533-0.253-1.982-0.747-4.346-1.479c-7.04-2.023-11.768-3.554-14.182-4.591c-6.151-2.704-9.228-7.206-9.228-13.503
				c0-4.879,1.767-8.735,5.301-11.568c1.905-1.542,3.952-2.604,6.138-3.186c3.125-0.834,6.596-1.252,10.408-1.252
				c8.334,0,14.282,2.176,17.84,6.523C755.23,237.635,756.398,240.923,756.806,245.121z"/>
		</g>
		<g>
			<path fill="#E31C23" d="M823.013,263.858v17.827h-15.632V229.91h25.086c5.718,0,10.192,0.747,13.419,2.237
				c5.668,2.604,8.501,7.031,8.501,13.276c0,6.044-2.909,10.292-8.729,12.745c2.845,0.961,4.98,2.883,6.404,5.766
				c1.042,2.302,1.612,5.88,1.715,10.734c0.102,2.706,0.305,4.489,0.609,5.349c0.179,0.506,0.432,1.063,0.765,1.668h-16.242
				c-0.38-1.465-0.623-3.665-0.725-6.6c-0.177-4.248-0.852-7.131-2.02-8.648c-0.865-1.137-1.957-1.885-3.279-2.237
				c-0.789-0.229-1.92-0.342-3.394-0.342H823.013z M823.013,242.618v10.051h8.921c1.88,0,3.177-0.151,3.889-0.456
				c1.779-0.782,2.667-2.364,2.667-4.74c0-2.352-0.965-3.856-2.897-4.514c-0.685-0.229-1.893-0.341-3.621-0.341H823.013z"/>
		</g>
		<g>
			<path fill="#E31C23" d="M874.531,261.278v6.942h29.087v13.465h-44.719V229.91h43.994v13.466h-28.362v6.524h24.436v11.378H874.531
				z"/>
		</g>
		<g>
			<path fill="#E31C23" d="M924.003,261.278v6.942h29.087v13.465h-44.719V229.91h43.994v13.466h-28.362v6.524h24.436v11.378H924.003
				z"/>
		</g>
		<g>
			<path fill="#E31C23" d="M985.171,243.376v38.31h-15.629v-38.31H954.52V229.91H1000v13.466H985.171z"/>
		</g>
		<g>
			<path fill="#E31C23" d="M789.823,243.376v38.31h-15.63v-38.31h-15.022V229.91h45.48v13.466H789.823z"/>
		</g>
		<g>
			<path fill="#E31C23" d="M690.079,229.91v51.775h-14.447v-30.193l-7.816,30.193h-11.703l-7.702-30.193v30.193h-14.448V229.91
				h21.044l7.016,27.805l7.28-27.805H690.079z"/>
		</g>
		<g>
			<path fill="#E31C23" d="M605.729,229.91v38.311h23.255v13.465H590.1V229.91H605.729z"/>
		</g>
		<g>
			<path fill="#E31C23" d="M556.255,261.278v6.942h29.088v13.465h-44.718V229.91h43.993v13.466h-28.363v6.524h24.437v11.378H556.255
				z"/>
		</g>
		<g>
			<path fill="#E31C23" d="M515.979,229.91v51.775h-15.898l-15.745-26.665v26.665h-15.63V229.91h15.744l15.898,27.008V229.91
				H515.979z"/>
		</g>
		<g>
			<path fill="#E31C23" d="M437.777,228.735c6.659,0,12.326,1.91,17.003,5.727c6.1,4.983,9.149,12.1,9.149,21.355
				c0,9.205-3.05,16.309-9.149,21.317c-4.651,3.818-10.421,5.728-17.308,5.728s-12.657-1.909-17.308-5.728
				c-6.1-5.009-9.149-12.088-9.149-21.242c0-9.456,3.05-16.6,9.149-21.431C424.967,230.646,430.839,228.735,437.777,228.735z
				 M437.319,241.556c-3.406,0-6.062,1.505-7.968,4.514c-1.652,2.604-2.478,5.854-2.478,9.748c0,3.869,0.826,7.106,2.478,9.709
				c1.906,3.01,4.613,4.515,8.12,4.515s6.214-1.505,8.12-4.515c1.652-2.629,2.478-5.853,2.478-9.671
				c0-3.971-0.826-7.231-2.478-9.786C443.661,243.061,440.903,241.556,437.319,241.556z"/>
		</g>
		<g>
			<path fill-rule="evenodd" clip-rule="evenodd" fill="#E31C23" d="M284.578,72.11c0.958,0.488,0.177,1.621,0.589,2.706
				c0.472,1.243,4.729,5.721,6.206,5.708c1.524-0.012,1.527-1.551,3.251-1.803c0.857,0.531,1.167,1.62,2.364,1.803
				c0.601,4.115-2.284,4.688-3.251,7.211c1.113,1.788,0.717,3.847,0.294,6.008c-3.172,1.783-3.125,6.839-5.909,9.014
				c-0.558,2.838-1.412,5.376-2.955,7.211c-0.769-0.325-1.971-0.253-2.66-0.598c-0.638-0.326-0.705-1.215-1.182-1.506
				c-0.976-0.595-2.088-0.187-3.547-0.6c-3.548-1.006-6.236-2.873-7.978-5.709c-0.375-3.624-3.179-4.779-5.022-6.909
				c-0.31-3.42,3.542-2.608,2.659-6.611c1.25-1.833,4.386-1.75,3.844-5.408c3.772-0.37,5.054-3.274,6.204-6.31
				c1.917-1.458,5.063-1.666,5.912-4.208C283.787,72.11,284.183,72.11,284.578,72.11z"/>
			<path fill-rule="evenodd" clip-rule="evenodd" fill="#E31C23" d="M465.135,125.894c0.293,0,0.588,0,0.884,0
				c-0.225,1.135,0.361,1.438,0.295,2.402C464.722,128.756,464.616,126.642,465.135,125.894z"/>
			<path fill-rule="evenodd" clip-rule="evenodd" fill="#E31C23" d="M512.732,0c0.002,2.102,0.774,3.416,2.066,4.207
				c-0.188,2.807-1.084,4.811-0.293,7.211c0.392,1.191,1.914,1.877,2.364,3.006c1.156,2.919,0.729,5.538,0.296,9.012
				c-0.561,0.333-1.397,0.383-2.069,0.602c-0.856,1.646,0.234,2.546-0.297,4.204c-0.431,1.347-2.025,1.785-2.363,2.707
				c-0.325,0.878-0.505,6.406-0.297,7.21c0.075,0.277,0.668,0.444,0.887,0.902c0.57,1.186,0.602,1.374,1.772,2.404
				c1.43,1.253,3.754,1.755,5.615,3.303c1.624-0.851,4.227-0.711,5.615-1.802c1.17,0.213,1.713,1.065,2.365,1.802
				c1.434,0.349,2.647,0.458,3.841,0.903c0.466,0.175,0.523,0.531,0.887,0.601c1.242,0.24,2.501-0.231,3.841,0
				c2.853,0.495,4.348,3.054,6.799,3.906c1.632,0.568,3.585-0.204,4.727,1.503c0.003,1.918-0.179,3.63-1.182,4.808
				c-0.883,1.035-0.663,0.642-1.182,2.403c-0.039,0.126-0.823,2.354-1.184,2.704c-0.51,0.492-1.725,0.274-2.956,0.9
				c-1.193,0.611-2.148,2.354-2.953,2.706c-1.056,0.462-2.424-0.031-3.252,0.301c-1.62,0.648-2.161,2.106-3.249,3.304
				c-4.443,0.008-10.759-2-12.708,1.804c-3.862,0.434-9.182,1.578-11.82,4.206c-2.299,2.291-4.128,5.604-0.592,6.609
				c-0.976,1.819-2.04,3.042-2.955,5.709c-0.326,0.953-1.302,3.59-1.182,5.11c0.136,1.712,1.58,3.151,1.475,4.807
				c-0.074,1.219-1.075,1.657-1.475,2.704c-0.308,0.805-0.801,3.099-0.887,3.906c-0.205,1.941,0.477,3.43,0.592,5.711
				c0.102,2.085-0.913,4.211-0.592,6.306c0.269,1.746,2.147,2.93,2.069,4.508c-0.07,1.447-1.278,2.705-2.069,3.907
				c0.746,3.606-0.823,6.531,0,10.215c-2.208,2.313-2.646,6.92-1.181,10.218c0.681,1.532,1.019,3.501,1.477,6.004
				c0.446,2.456,1.132,4.201,2.364,5.709c-0.571,1.785,0.674,3.202,0.591,4.809c-0.047,0.961-1.589,2.977-1.771,4.504
				c-0.073,0.614,0.556,1.515,0.59,2.409c0.03,0.733-0.492,0.291-0.59,0.598c0.099-0.301-0.056,2.176,0,2.408
				c0.259,1.061,0.888,0.788,1.476,1.498c0.99,1.195,1.281,3.02,2.662,3.908c0.093,2.696-2.606,2.559-2.366,5.41
				c-2.024,0.644-2.491,2.877-4.728,3.309c-0.76,4.562-4.683,5.398-8.274,2.997c-0.838-0.557-2.09-1.453-2.364-1.798
				c-0.648-0.819-0.648-2.166-1.181-3.007c-0.207-0.326-0.79-0.234-1.183-0.6c-0.586-0.546-0.513-1.984-0.884-2.408
				c-0.733-0.819-2.247-0.95-2.661-1.799c-0.539-1.181,0.038-2.396-0.295-3.605c-0.427-1.557-1.844-2.28-2.068-3.306
				c-0.649-2.968,1.777-7.114-0.293-10.519c-0.434-0.764-1.572-0.803-2.07-1.5c0.183-1.449-1.201-2.146-1.773-3.309
				c-0.229-0.463-0.033-1.208-0.295-1.799c-0.151-0.338-0.797-0.626-0.887-0.903c-0.263-0.791,0-1.627-0.295-2.405
				c-0.18-0.465-1.073-0.766-1.185-1.497c-0.238-1.617-0.533-3.35-1.178-5.109c-0.217-0.594-1.037-1.237-1.185-1.799
				c-0.447-1.727-0.897-4.222-1.477-5.417c-0.202-0.413-0.651-0.008-0.886-0.299c-0.119-0.149-0.261-1.139-0.294-1.201
				c-0.501-0.96-1.18-2.375-0.592-4.206c-0.104-0.619-1.729-1.217-0.59-2.104c1.132-0.214,0.362,0.803,0.59,1.2
				c0.186,0.326,0.66,0.289,0.886,0.603c0.203,0.274,0.103,0.646,0.296,0.901c0.902,1.186,1.339,2.422,2.364,3.906
				c1.61,2.329,3.737,5.415,5.317,8.113c1.796-0.087,2.392,1.93,3.845,1.806c0.86-0.079,2.433-1.64,2.66-3.009
				c0.073-0.436-0.485-1.239-0.592-2.103c-0.379-3.08,0.157-7.917-0.295-9.915c-0.152-0.662-0.962-1.241-1.184-1.802
				c-0.53-1.351-0.371-2.678-0.588-4.508c-0.118-0.989-0.82-1.966-0.886-2.702c-0.152-1.624,0.915-3,0-4.207
				c1.188-1.598,2.06-3.514,2.659-5.709c-0.028-1.376-1.407-1.376-1.772-2.405c0.632-1.841-0.004-3.228,0.293-5.106
				c0.121-0.749,0.637-0.811,0.887-1.503c0.156-0.434-0.091-1.047,0-1.503c0.14-0.687,0.594-0.851,0.592-1.199
				c-0.007-1-0.552-1.194-0.887-2.105c-0.315-0.857-0.379-2.09-0.592-3.305c-0.333-1.94-0.293-2.541,0-4.507
				c0.382-2.545-0.837-4.047-0.883-6.609c-0.709-0.58-2.026-2.353-3.844-2.405c-1.085-0.029-2.081,1.253-3.547,1.504
				c-2.169,0.369-4.667-1.087-5.911-0.901c-1.871,0.276-2.981,2.762-3.545,3.904c-1.549,0.229-2.067,1.507-2.955,2.404
				c-3.532,0.198-7.624-2.087-10.64-0.899c-1.613,0.634-2.131,2.182-3.252,3.605c-0.938-0.046-1.299-0.683-2.362-0.602
				c-1.4,0.857-3.061,1.099-5.319,1.805c-2.304,0.717-3.499,2.317-6.796,2.702c-2.021,0.235-2.288-0.118-3.546-0.901
				c-1.387-0.86-1.964-1.963-2.958-3.606c-1.016,0.132-1.655-0.119-2.364-0.301c-1.158-3.632-4.894-5.141-4.728-10.816
				c0.055-1.887,0.533-4.56,1.479-5.409c1.605-1.441,4.382-0.149,6.796-0.602c0.689-0.125,1.71-0.678,2.364-1.201
				c0.465-0.369,0.859-1.372,1.477-1.801c0.381-0.266,1.241-0.291,1.774-0.603c1.241-0.726,1.338-1.357,3.25-1.501
				c0.885-0.07,1.357-1.665,2.363-1.802c1.704-0.235,3.107,2.209,5.023,2.102c1.596-0.088,1.72-1.455,2.958-2.102
				c1.141-0.597,2.453-0.665,4.43-0.9c0.84-0.751,1.47-1.712,3.251-1.504c0.657,0.921,0.84,2.039,2.069,2.103
				c1.362,0.073,1.538-1.239,2.955-2.103c1.438-0.875,3.254-0.568,3.545-1.802c4.901,0.2,9.573-2.474,13.595-4.206
				c-0.132,0.057,0.336-0.64,0.295-0.602c0.815-0.789,1.255-1.977,1.772-3.004c1.52-1.149,2.896-1.221,3.841-2.704
				c2.067-3.246-0.241-9.176,3.548-11.116c-0.094-1.311-1.109-1.679-1.185-3.007c-0.112-1.314,0.857-1.534,1.185-2.403
				c-0.722-2.389-1.553-5.925,0-7.511c0.479-4.879-1.907-6.38-1.773-10.216c0.463-1.031,1.466-1.513,2.069-2.403
				c-0.405-2.415,0.119-5.405,2.363-6.008c0.176-1.824,1.324-2.658,1.477-4.509c2.328-0.136,3.797-1.148,4.136-3.305
				c1.617,0.026,2.26,0.377,2.957,0c1.151,0.304,0.043,1.037,0.295,2.104c0.973,2.406,4.08,0.214,6.206,0.3
				c0.965,0.042,1.697,0.753,2.661,0.603c1.275-0.202,2.011-1.784,3.248-1.502c0-0.702,0-1.402,0-2.104
				c0.76-0.03,1.41-0.17,1.773-0.601C512.337,0,512.533,0,512.732,0z"/>
			<path fill-rule="evenodd" clip-rule="evenodd" fill="#E31C23" d="M845.002,25.543c0.955,0.339,0.802,1.794,1.484,2.406
				c0.43-0.465,1.509-0.267,2.363-0.3c-0.037,1.467-0.612,2.379-1.776,2.703c-0.183,1.108-0.841,1.771-1.179,2.702
				c-0.384,1.061-0.105,2.315-1.183,3.606c-0.806,0.965-2.346,1.099-3.25,2.104c-0.617,0.681-0.891,2.104-1.477,3.004
				c-0.605,0.937-1.415,1.38-1.776,2.404c-2.472,0.361-3.476,2.654-5.022,3.907c-1.644,1.331-3.175,1.587-4.134,3.003
				c-0.448,0.659-0.339,1.475-0.891,2.103c-0.739,0.846-2.007,1.333-2.955,2.104c-2.159,1.761-4.736,3.975-6.503,6.31
				c-0.201,0.269,0.158,0.414,0,0.6c-0.309,0.378-1.147,0.468-1.473,0.901c-0.359,0.469-0.295,1.22-0.592,1.504
				c-2.256,2.164-6.188,2.584-7.682,5.707c-1.988-0.114-3.049,0.713-4.145,1.505c-0.105,0.373-0.203,1.535-0.884,2.103
				c-3.582,0.464-4.692,3.437-5.612,6.61c-0.353,0.344-1.041,0.339-1.774,0.3c-1.498,2.779-1.158,7.439-4.728,8.113
				c-0.369,3.036-2.611,4.357-2.66,6.91c-1.267,0.282-1.953-0.93-2.661-0.301c-0.679-0.092-0.326,0.869-0.88,0.902
				c0.651,5.175-2.233,12.42,2.656,14.723c0.606,2.612-2.241,4.105-2.067,6.008c0.179,2.01,1.991,2.073,3.541,3.605
				c-1.64,2.679-2.507,4.333-2.067,6.914c0.156,0.897,1.084,1.326,1.479,2.403c0.205,0.551-0.173,1.248,0,1.801
				c1.017,3.281,2.664,4.843,0.589,8.413c-0.471,0.816-1.245,1.756-1.772,2.705c-0.604,1.091-1.116,2.497-1.478,3.009
				c-0.832,1.183-3.167,2.772-5.021,3.601c-3.145,1.407-5.917,5.029-11.23,4.209c-0.911-0.139-2.492-1.436-2.953-2.704
				c-0.278-0.764,0.369-1.681,0-2.702c-0.485-1.316-1.151-1.822-2.66-3.302c-0.131-1.986-0.59-3.447-1.186-4.213
				c0.369-1.959,0.598-3.717,0-6.312c-0.421-1.819-1.874-3.793-2.064-5.406c-0.291-2.361,1.127-4.353,0.589-6.912
				c0.214-0.787,0.963-1.022,1.177-1.802c-0.282-2.312-1.978-3.191-4.134-3.607c0.664-0.616-0.297-0.845-0.297-0.901
				c-0.07-1.324,0.76-2.578,0.596-4.208c-0.087-0.831-1.036-1.366-1.184-2.101c-0.506-2.471,0.843-3.984,1.774-6.01
				c0.015-1.319-0.981-1.61-1.187-2.704c0.965-1.763-0.208-2.589-0.588-5.409c-0.311-2.306,0.249-5.17,0-7.211
				c-0.028-0.239-0.581-0.927-0.589-1.203c-0.057-1.245,0.319-2.389,0.297-3.605c-0.048-1.972-0.642-4.057-0.891-6.01
				c-0.288-2.237,0.23-3.646-1.478-4.807c0.701-2.548-0.509-5.397-2.069-6.609c-0.745-1.511,0.753-2.405,0.884-3.908
				c0.269-2.986-1.552-6.353,0.304-8.711c-1.167-1.529-0.457-3.227-0.596-6.009c-0.118-2.315-1.144-3.939-0.887-5.109
				c0.116-0.511,1.138-0.596,0.59-1.203c1.199-0.335,3.152-0.335,4.143-1.501c0.531-0.635,0.214-1.828,0.585-2.703
				c0.631-1.467,2.136-2.036,2.067-3.306c1.291-0.584,2.112-0.075,2.957-0.301c2.377-0.633,2.646-2.727,4.434-3.905
				c2.1,0.571,4.043,1.3,4.729,3.304c1.532,0.246,2.659,0.904,4.729,0.601c-0.033,4.74,0.735,6.426,2.362,9.916
				c0.087,0.409,0.739,0.249,1.183,0.3c0.717,3.75,0.631,6.525,2.659,9.015c2.44-0.482,4.381-2.351,4.431-4.206
				c2.274-0.803,4.699,1.818,6.797,0c0.32-0.278,0.727-1.007,1.184-1.502c1.214-1.31,1.853-1.605,2.066-3.306
				c2.729,0.677,3.342-1.027,4.141-3.003c1.188,0.208,1.686-0.29,2.654-0.3c2.686-2.349,5.391-6.606,10.347-6.012
				c0.813,0.099,0.89,0.7,1.776,0.602c2.38-0.904,2.638-4.04,4.728-5.408c0.413-0.273,1.299-0.107,1.767-0.303
				c2.49-1.033,4.654-1.547,7.689-1.802c0.255-0.541,0.651-0.941,1.176-1.202C837.751,27.085,840.033,25.947,845.002,25.543z"/>
			<path fill-rule="evenodd" clip-rule="evenodd" fill="#E31C23" d="M921.105,148.893c-0.718,1.772-2.278,2.689-4.139,3.304
				c-0.465,3.304-3.918,3.417-5.317,5.405c-0.236,0.336-0.641,0.311-0.888,0.602c-1.523,1.776-1.874,3.35-3.84,4.508
				c-1.469,0.863-4.37,0.598-6.5,1.498c-2.331,0.988-3.788,3.574-5.62,5.114c-2.563-2.271-4.369,1.174-6.793,1.502
				c-0.608,0.075-1.264-0.498-2.069-0.602c-2.621-0.332-3.923,0.485-5.024,1.806c-0.934,1.108-0.504,1.946-1.772,2.399
				c-0.614,0.22-2.206-0.403-3.543-0.304c-1.068,0.083-2.146,0.61-2.959,0.603c-2.933-0.025-6.32-1.719-8.866-1.499
				c-1.835,0.158-3.51,1.814-5.019,1.806c-0.54-0.004-2.084-0.644-3.25-0.909c-4.187-0.938-4.19-0.979-5.913-2.697
				c-1.901-1.905-3.221-3.275-6.506-1.806c-1.818-1.154-3.722-2.221-4.135-4.807c-2.525-0.976-4.688-3.699-6.502-5.11
				c-0.424-0.332-0.627-0.498-0.889-0.9c-1.118-1.785-1.153-4.201-2.063-6.31c-1.318-3.055-3.829-5.317-3.844-7.812
				c-0.004-1.885,1.559-3.682,1.183-5.411c-0.478-2.196-3.397-3.154-3.547-5.71c-0.068-1.268,0.771-2.417,0.889-3.604
				c0.218-2.31,0.064-3.629-0.889-6.009c-1.841-0.678-4.3,0.623-5.024-1.502c-0.274-1.962,3.261-2.461,3.549-4.506
				c0.162-1.185-1.297-3.582-1.481-4.51c-0.457-2.378,0.255-5.296,0.89-9.01c1.084-6.354,1.482-9.648,3.547-13.822
				c1.477-2.993,3.153-5.429,5.025-8.414c1.039-1.661,2.65-3.153,3.545-4.808c1.485-2.741,1.476-8.464,5.908-8.714
				c1.442-2.548,3.773-4.366,5.024-6.309c0.234-0.368,0.751-0.669,0.884-0.901c0.918-1.634,0.789-3.861,2.067-5.107
				c1.114-1.078,2.879-0.875,4.143-1.804c0.068-2.135,1.112-2.087,0.885-3.906c2.743-1.128,2.621-4.586,5.613-5.107
				c0.566-0.1,0.5-0.188,0.891-0.301c0.819-0.242,1.976-0.171,2.658-0.602c0.341-0.216,0.23-0.859,0.586-1.202
				c0.367-0.346,0.948-0.363,1.185-0.601c0.604-0.607,1.239-1.256,1.776-2.104c1.864,1.012,2.833-1.456,4.43-2.103
				c0.51-0.204,0.942,0.327,1.181,0.301c0.313-0.034,1.029-0.555,1.185-0.601c2.688-0.824,4.944-1.622,6.798-2.705
				c1.618,0.215,2.83-0.026,4.134-0.601c0.747-0.326,1.266-0.894,2.067-1.202c2.529-0.964,5.024,0.234,7.981,0
				c1.577-0.125,2.611-0.707,4.135-1.202c1.638,0.742,3.231,1.524,5.913,1.202c0.888,0.297,0.809,1.581,2.068,1.501
				c1.324-0.018,1.796,1.233,3.844,1.204c1.854,2.013,5.212,3.513,5.907,6.609c0.297,1.301-0.005,2.874,0,4.207
				c0.008,3.73,0.969,12.805-0.295,15.625c-0.762,1.698-3.477,2.958-4.431,4.807c-1.862,3.617-1.848,6.934-3.251,9.615
				c-3.457,1.168-4.885,4.084-6.799,6.61c-0.664,0.875-2.308,2.748-2.064,2.403c-1.588,2.253-3.182,2.813-5.321,4.507
				c-0.698,0.554-1.158,1.574-1.772,2.104c-2.536,2.187-6.887,2.431-8.574,5.109c-0.784,1.242-0.105,2.056-1.181,2.703
				c-0.965,0.582-2.872,0.254-4.431,0.602c-1.397,0.309-3.063,0.665-4.137,1.201c-0.395,0.196-0.054,0.313-0.301,0.601
				c-0.795,0.937-1.864,1.38-3.246,1.503c-0.513,0.83-1.395,2.371-2.955,3.304c-0.627,0.374-2.103,0.351-2.953,0.901
				c-1.638,1.054-1.208,2.515-2.661,2.704c-1.066,0.14-1.942-0.845-2.957-0.903c-3.744,2.551-10.913,1.13-13.001,4.509
				c-0.952,1.539-0.544,2.945-1.187,4.807c-0.383,1.135-0.743,1.25-0.885,2.104c-0.199,1.244-0.176,4.152,0,5.106
				c0.156,0.83,0.885,1.256,1.186,2.106c0.664,1.893,0.564,3.791,1.183,5.409c0.359,0.947,1.063,1.575,1.181,2.403
				c0.347,2.484-0.473,3.981,0.297,5.404c0.725,1.349,1.302,2.254,2.067,3.309c1.125,1.548,2.221,3.192,3.252,3.607
				c0.813,0.901,1.544-0.813,2.951-0.303c0.866,1.121,1.887,2.092,2.368,3.607c1.063,0.116,1.98,0.386,2.953,0.602
				c0.324,3.707,3.17,2.167,5.913,1.806c0.793,0.017,1.415,0.681,0.884,1.2c1.866-0.502,2.836,1.976,5.023,2.403
				c2.054,0.402,4.59-0.801,6.207,0.9c2.184-1.485,4.941-2.025,7.387-1.502c2.071,0.443,4.043,0.299,5.616-0.299
				c1.471-0.568,1.031-1.569,2.658-2.407c2.59,2.216,4.713,0.851,7.387,0.602c0.819-0.07,1.442,0.423,2.363,0.303
				c1.086-0.149,1.606-0.585,2.661-0.602c1.334-2.814,4.949-2.474,7.681-3.603c0.299-0.125,0.476-0.689,0.889-0.9
				c0.513-0.274,1.22-0.146,1.479-0.303c1.937-1.191,2.435-3.337,4.728-3.902c0.511,0.174-0.026,1.416,0.59,1.495
				C921.105,148.689,921.105,148.789,921.105,148.893z M871.165,63.256c-2.344,0.822-3.462,2.89-5.319,4.205
				c0-0.164-0.243-0.338-0.293,0c-0.218,1.103-3.578,1.728-4.139,2.103c-0.987,0.662-1.62,1.663-2.365,3.008
				c-0.398,0.72-0.069,1.728-0.293,3.004c-0.224,1.236-1.505,1.464-2.368,2.103c-1.732,1.285-2.488,3.615-1.772,6.008
				c-1.503,0.976-3.003,1.952-4.431,3.005c-0.131,2.193-2.055,5.612-0.887,8.113c0.571,1.231,2.702,2.398,4.432,2.104
				c0.996-0.169,2.324-2.152,3.545-2.706c0.819-0.369,1.952,0.014,2.658-0.302c1.144-0.506,1.119-1.126,1.481-1.802
				c1.698,0.115,0.521-0.753,2.067-1.501c0.253,0.445,0.737,0.646,1.479,0.6c0.276-0.982,1.422-0.749,2.065-1.2
				c2.368-1.661,3.246-4.267,5.021-6.312c2.16,0.352,2.758-1.511,4.729-2.102c-0.143-0.95,0.531-1.063,0.299-2.103
				c1.752-0.525,2.652-1.908,4.729-2.104c1.693-2.874,5.375-3.98,5.611-7.512c2.117-1.253,4.006-2.737,5.321-4.806
				c1.599,0.296-0.12-0.898,1.476-0.602c2.012-2.963,3.045-6.621,2.659-11.117c-3.196-0.912-4.738-1.569-7.387-0.901
				c-3.337,0.842-4.917,5.201-9.75,3.906c-1.077,1.208-2.358,2.204-5.029,1.8C873.294,59.613,871.901,61.104,871.165,63.256z"/>
			<path fill-rule="evenodd" clip-rule="evenodd" fill="#E31C23" d="M736.676,46.418c0.638,2.754,2.903,3.853,2.656,7.511
				c-0.207,1.209,1.248,0.74,1.186,1.804c0.361,2.072-0.662,2.739-1.776,3.305c-0.057,1.442-0.789,2.201-0.59,3.906
				c-1.594,1.567-1.843,6.031-0.299,8.114c0.081,0.878-0.666,0.922-0.587,1.801c0.004,1.444,1.849,2.958,0.886,4.808
				c-0.116,0.218-0.843,0.501-0.886,0.601c-0.418,1-1.065,3.16-1.184,4.206c-0.192,1.701,0.774,3.625,0.594,5.108
				c-0.199,1.594-1.951,2.708-2.37,4.206c-0.705,2.543,0.247,5.728,0.297,9.315c0.031,1.99-0.832,4.422-0.592,6.008
				c0.293,1.913,2.391,3.188,2.372,5.107c2.202,1.007,2.709,4.614,0,5.409c0.604,2.31-1.465,5.545-1.187,8.114
				c0.247,2.278,1.716,2.666,2.955,4.205c-0.29,2.129,2.256,3.562,2.366,5.41c0.098,1.728-1.723,3.322-1.776,4.808
				c-0.083,2.378,2.938,4.562,3.25,7.214c0.143,1.195-0.581,2.291-0.592,3.906c1.704,2.292,1.525,4.911,1.183,7.509
				c-1.849,0.826-2.922,2.44-5.024,3.005c-0.651,2.279-1.208,4.596-3.547,4.209c-1.432-0.24-1.039-1.81-2.363-2.71
				c-4.475,0.647-5.841-1.868-8.862-2.698c-2.269-1.465-2.482-3.337-2.366-6.616c0.057-1.611-0.604-2.839-1.181-4.504
				c-0.62-1.789-0.253-4.487-2.069-5.105c-4.236,0.303-4.473,4.67-7.979,5.708c-1.082,0.195-1.132-0.652-2.065-0.602
				c-1.835,1.839-5.211,2.113-6.504,4.504c-2.346,0.324-3.809,1.536-5.023,3.009c-2.515-0.349-3.833,0.511-5.024,1.502
				c-3.034-0.361-4.257,1.059-6.498,0c-2.237,0.855-2.845,2.18-5.024,1.798c-1.965-0.337-2.677-2.802-4.141-3.001
				c-1.289-0.17-2.75,1.187-3.839,1.204c-2.126,0.029-4.303-1.723-6.204-3.005c-1.05-0.706-4.731-0.307-5.91-1.2
				c-0.951-0.722-0.913-2.146-1.479-3.005c-0.751-1.142-2.272-2.955-3.549-3.611c-0.6-0.303-1.859-0.27-2.658-0.602
				c-1.322-0.536-2.027-1.855-3.25-2.101c-1.316-0.261-2.889,0.934-4.139,0.303c-0.238-0.801-0.563-1.598-0.589-2.408
				c-0.064-1.73,0.981-2.769,1.479-4.505c0.224-0.799,0.052-2.069,0.295-3.004c1.07-4.176,0.618-10.097-0.295-14.722
				c-2.023-0.868-2.931,0.239-4.73-0.904c-1.393-0.88-0.84-2.691-2.365-2.702c-2.567-0.021-1.544,3.994-3.25,6.008
				c0.332,1.267,1.249,1.933,2.363,2.405c-0.295,1.688,1.426,2.809,1.476,4.505c0.044,1.251-1.066,2.296-1.181,3.606
				c-0.092,1.068,0.766,2.608,0.592,3.905c-0.11,0.824-1.335,2.08-1.182,3.607c0.287,2.864,3.394,2.914,2.956,8.115
				c-0.096,1.096-0.73,2.059-0.887,3.005c-0.353,2.15,0.376,3.918,0.592,6.309c0.133,1.511-0.147,2.868,0,3.902
				c0.199,1.428,0.249,1.515,0.295,2.108c0.164,2.117-1.731,2.772-2.956,3.905c-0.396,2.549,0.247,4.766-2.068,6.007
				c-0.774,0.415-0.905,2.328-1.476,3.005c-0.542,0.636-1.723,0.636-2.071,1.204c-0.005,1.303-0.781,2.005-0.297,3.005
				c-2.425,1.059-1.992,4.321-4.135,5.105c-0.876,0.324-1.297-0.581-1.478-0.598c-1.32-0.187-2.538,0.727-4.139,0.598
				c-1.121-0.714,0.39-0.938,0.298-1.507c-0.184-1.129-1.334-1.066-1.479-2.104c-0.145-1.021-0.058-2.603,0.297-3.599
				c0.313-0.896,1.141-1.66,1.182-3.606c0.034-1.789-0.763-4.105-0.886-6.313c-0.075-1.263,0.355-2.441,0.296-3.6
				c-0.025-0.415-0.524-1.096-0.592-1.502c-0.537-3.242,0.767-6.505,0.592-9.319c-0.126-1.963-0.396-4.063-0.592-5.409
				c-0.135-0.9-0.639-1.585-0.594-2.399c0.078-1.308,1.268-2.308,1.478-3.607c0.292-1.806,0.046-5.247-0.292-6.612
				c-0.28-1.118-1.235-1.517-1.777-2.706c-0.094-1.399,0.917-1.67,1.186-2.704c-1.138-4.952-3.363-8.801-4.729-13.52
				c0.177-0.92,0.625-1.567,0.884-2.403c-1.15-5.102-0.195-10.057-2.067-14.424c0.525-1.548,0.038-3.024-1.182-3.606
				c-1.962,0.81-3.26,2.294-5.911,2.404c-0.949,2.938-3.434,4.32-3.251,8.415c-2.858,0.746-3.006,3.123-2.954,6.307
				c-1.53,0.846-1.261,1.944-2.364,3.906c-0.203,0.363-0.68,0.329-0.886,0.602c-0.126,0.163,0.149,0.77,0,0.901
				c-0.059,0.051-0.573-0.061-0.593,0c-0.319,1.034,0.131,2.862,0,4.207c-0.233,2.43-0.878,4.609-1.179,6.911
				c-2.2,1.673-2.744,3.45-2.071,5.709c0.389,1.299,1.911,1.818,2.365,3.005c0.402,1.059,0.051,2.636,0,3.607
				c0.24,1.245-1.823,0.145-2.069,0.905c-1.865,3.304,0.499,6.405,1.775,8.41c-1.575,1.091-3.032,3.125-2.662,5.707
				c0.221,1.536,1.402,2.246,1.774,3.005c-1.875,2.604-2.34,6.638-5.912,7.514c-0.271,1.125-0.67,2.125-0.886,3.3
				c-0.756-0.282-1.078,0.776-1.773,0.905c-1.03,0.19-1.978-0.516-2.954-0.599c-2.343-0.211-4.778,0.432-7.092-0.307
				c-1.957-0.614-2.932-2.645-5.024-2.097c0.296-2.216-3.905-3.345-3.843-6.01c0.021-0.78,0.467-1.449,0.591-2.412
				c0.399-3.038,0.104-8.135-0.887-10.809c-0.274-0.743-1.419-1.22-1.771-2.706c-1.15-4.828,3.17-10.004,1.476-15.626
				c-0.209-0.699-0.948-1.269-1.18-2.103c-1.297-4.656,1.012-12.306-2.957-12.62c-2.841-0.225-4.212,3.459-4.43,6.609
				c-1.485,0.497-2.716,1.246-2.662,3.306c-2.27,0.396-4.14,1.196-4.728,3.304c0.105,0.997,1.703,0.471,2.662,0.602
				c-0.956,2.269,0.306,4.352,0.885,6.008c-0.781,2.814-3.1,4.064-2.953,7.812c-1.278,0.706-1.614,2.362-1.775,4.209
				c-1.406,0.647-2.601,1.565-2.661,2.702c-0.083,1.648,3.211,4.143,3.548,6.01c0.848,4.716-3.461,5.961-4.136,10.216
				c-0.385,2.424,0.666,5.388,0.295,6.911c-0.177,0.726-1.217,1.141-1.184,2.104c-1.89,0.738-3.389,0.133-4.729,0.9
				c-1.721,0.983-1.56,3.512-3.25,4.508c-4.293-0.444-9.046-0.411-12.707-1.507c-0.298-3.499-1.205-6.38-4.137-7.206
				c1.293-3.44-5.004-4.632-1.772-8.418c-0.65-1.133-2.282-1.282-3.546-1.797c-1.437-2.565-0.482-5.479,1.773-6.612
				c-0.443-5.102,1.888-11.913-2.661-15.026c0.17-2.225,1.638-4.62,0.297-6.608c-2.746-1.334-5.898-1.75-5.615-6.01
				c0.173-2.612,2.8-4.454,3.843-6.31c2.312-0.641,2.058-1.342,3.842-3.607c0.55-0.702,1.529-1.149,2.067-1.801
				c1.412-1.712,1.293-3.94,0.884-6.911c-2.125-2.211,0.275-5.319-2.065-6.91c-1.271-0.863-3.698-0.76-5.025-1.804
				c-0.875-0.688-1.196-1.948-1.773-3.004c-0.088-0.791,0.409-0.987,1.184-0.902c0.079-0.961,0.006-2.173,0.292-3.003
				c0.89-2.561,3.42-4.572,6.502-4.809c1.48-0.113,3.345,1.044,4.728,0.601c2.114-0.676,2.04-3.215,2.069-5.708
				c1.15-0.089,2.338,0.777,3.251,0c1.114-1.875,1.354-4.634,3.545-5.409c-0.123-1.429,0.429-2.169,0.591-3.308
				c3.563,0.387,6.251-0.007,9.457,0.904c0.164,2.537,2.114,3.259,5.024,3.004c1.12,1.464,2.995,2.16,4.136,3.604
				c1.952,0.482,2.709-0.509,3.841-1.2c1.095-0.667,1.309-0.969,2.364-2.104c0.477-0.51,0.568-1.089,1.774-1.201
				c1.392-0.13,2.192,1.617,4.139,0.901c1.47-0.543,1.874-2.412,3.247-3.004c1.923-0.829,5.162-0.065,7.388-0.904
				c1.308-0.489,1.851-1.275,2.955-2.1c2.041,0.56,3.434,2.241,6.206,1.2c0.909,2.981,4.228,3.514,4.729,6.911
				c0.391,0.905,1.485,1.096,2.365,1.5c-0.416,1.624,0.829,3.569,0.588,4.81c-0.248,1.295-2.563,2.835-2.657,5.106
				c-0.093,2.176,1.084,3.223,2.069,4.508c0.563,0.736,0.314,1.391,1.18,1.501c2.568,0.334,2.348-3.625,4.139-6.91
				c0.448-0.823,1.179-1.886,1.478-3.305c0.642-3.054-0.478-4.976,2.364-6.01c0.462-0.458,0.288-1.552,0.591-2.103
				c0.132-0.241,0.773-0.115,0.885-0.3c0.707-1.168,1.795-3.846,3.548-4.208c0.623-1.267,0.749-3.046,2.363-3.303
				c-0.296-1.302,0.331-1.668,0.593-2.405c3.702-0.899,5.45,1.552,10.045,0.902c1.426-0.202,3.386-1.027,4.732,0.6
				c0.975,0.408,0.697,2.095,2.066,2.104c1.988-0.613,3.113-1.663,5.317-0.6c0.384,2.043,1.449,3.855,1.478,6.008
				c0.021,1.375-0.473,2.357,0.295,3.604c0.721,1.17,1.816,3.536,2.366,5.41c1.339,1.295,3.51,2.254,2.953,6.012
				c-0.114,0.792-0.898,1.64-0.889,2.702c0.031,2.561,3.672,6.82,0.299,8.714c0.665,3.485-1.367,7.25,2.069,7.81
				c2.053,0.336,1.837-1.522,4.43-1.201c0.467-4.023,0.232-8.729,0.888-12.019c-0.008-0.912,1.038-0.749,1.772-0.902
				c0.789-1.107,0.297-2.455,0.596-3.606c0.62-2.417,2.326-4.395,2.656-6.909c1.808-0.767,3.107-2.045,3.842-3.906
				c1.824,0.154,2.771-0.586,3.842-1.203c-1.206-3.474,1.878-4.261,2.069-7.21c2.229-1.336,4.316-2.819,5.616-5.108
				c2.403-0.562,5.96,0.054,5.611-3.306c1.191-1.187,4.213-2.12,7.389-2.103c0.502,0.003,0.561,0.148,0.594,0.599
				c1.199-1.773,3.472-0.715,5.611-1.199c1.58-0.358,2.781-2.259,4.434-2.706c1.521-0.409,3.46,0.172,5.317,0
				c3.839-0.352,9.173-1.816,14.186-0.899c0.572,0.104,1.38,0.572,2.066,0.601c1.412,0.06,2.669-0.547,3.844-0.3
				c1.115,0.233,1.64,1.126,2.659,1.501c3.86-1.404,1.046-4.926,1.478-7.512c0.133-0.8,1.206-1.385,1.481-2.104
				c1.009-2.684-2.204-5.113-1.776-8.714c2.704-2.871,10.076,1.169,13.592-2.403C733.015,45.131,734.577,46.044,736.676,46.418z
				 M708.6,80.971c-2.263-0.996-2.758,1.919-4.728,2.103c-1.686,0.157-2.09-1.347-3.844-1.502c-0.627,2.217-2.813,2.23-4.726,3.005
				c-0.774,0.312-1.466,1.034-2.071,1.202c-1.839,0.511-4.228,0.313-6.204,0.903c-1,0.298-1.732,0.977-2.658,1.202
				c-0.849,0.205-1.905,0.056-2.661,0.301c-1.498,0.478-1.633,2.436-2.365,3.305c-1.527,1.816-3.438,2.067-5.317,3.303
				c-2.352,4.639-6.363,8.098-5.024,15.624c-0.557,0.908-2.785,1.27-3.248,3.009c-0.415,1.561,0.751,4.986,0.292,7.809
				c-0.222,1.374-1.131,2.499-1.179,3.606c-0.183,3.898,1.808,7.201,3.246,8.713c-0.795,0.892-0.73,2.66-1.177,3.905
				c2.678,2.686,4.321,6.421,9.748,6.313c1.962,2.789,6.608,0.531,9.753,1.801c0.311-1.382,2.488-0.872,2.953-2.104
				c3.488,0.121,7.758-1.511,9.752-3.906c1.521-0.245,2.084-0.021,3.545-0.602c0.555-0.639,0.483-1.914,1.186-2.403
				c3.335-0.168,3.523-2.66,5.026-4.506c1.131-1.404,2.289-1.618,3.835-2.705c0.1-0.705,0.468-1.126,0.295-2.103
				c0.797,0.268,0.347-0.603,0.594-0.904c0.276-0.323,1.169-0.554,1.482-0.898c0.232-0.264,2.359-4.789,2.359-4.807
				c0.074-0.958-1.075-2.529-1.771-4.808c-0.417-1.341-0.268-2.679-0.589-3.607c-0.195-0.538-0.737-0.938-0.889-1.502
				c-0.38-1.372-0.262-2.677-0.889-3.906c-1.575-0.702-2.824-1.737-4.728-2.102c-1.332-3.227-4.267-6.398-2.661-10.817
				c3.331-2.473,6.179,1.951,9.755,0c0.17-2.796,1.071-8.075-1.478-9.613c-1.437-0.261-1.52,0.858-2.96,0.598
				C709.374,83.632,710.021,81.597,708.6,80.971z"/>
			<path fill-rule="evenodd" clip-rule="evenodd" fill="#E31C23" d="M261.526,46.571c0.902,3.747-0.196,7.222,0.297,11.419
				c0.148,1.272,0.836,4.647,0.294,6.607c-0.168,0.613-1.141,1.369-1.772,2.408c-0.529,0.868-0.76,2.068-1.184,2.701
				c-0.291,0.442-1.238,0.736-1.476,1.203c-0.708,1.38-0.39,2.923-1.183,4.207c-0.902-0.218-1.077,0.308-1.772,0.302
				c-0.597,1.864-0.721,6.17-1.773,8.714c-0.558,1.343-0.146,2.285-0.296,3.905c-0.111,1.186-0.763,2.727-1.181,4.208
				c-1.054,3.726-1.021,5.205-4.73,5.707c-2.562,1.83-0.377,5.123-1.18,8.412c1.456,1.24,1.764,5.223-0.295,6.01
				c-1.75,0.475-1.526-1.054-2.957-0.903c-1.849,0.493-1.309,3.878,0,4.508c1.027,4.02-1.54,6.824-1.477,9.616
				c0.043,2.018,2.153,4.154,1.18,6.609c-1.876-0.383-3.716-3.927-5.613-1.504c0.062,1.202,0.931,2.68,1.478,4.208
				c0.536,1.497,1.411,2.91,1.771,4.213c0.186,0.653,0.446,2.354,0.298,3.003c-0.382,1.635-2.993,1.986-2.958,4.5
				c0.02,1.206,0.596,2.949,1.774,3.906c-0.952,3.117,3.054,5.243,2.659,7.214c-0.27,1.355-2.089,1.479-3.545,2.401
				c0.139,1.623-1.201,3.067-1.182,4.51c0.021,1.695,1.655,3.593,1.773,5.707c0.05,0.918-0.443,2.246-0.295,3.008
				c0.27,1.426,1.739,2.23,2.364,3.604c0.931,2.059,0.678,3.825,0.885,6.005c-1.062,1.326-2.875,1.888-4.433,2.71
				c-1.127,2.728,0.598,8.781,0,12.017c-0.235,1.274-1.209,2.169-1.475,3.302c-0.415,1.765-0.008,3.62-0.296,5.11
				c-0.205,1.07-1.218,2.066-1.184,3.907c0.02,1.057,0.96,1.48,0.886,2.406c-0.188,2.407-1.991,5.447-3.841,6.908
				c-0.375,6.33-4,9.351-8.273,11.721c-5.579-0.573-8.869,1.063-11.231-2.408c-0.407-0.598-0.651-1.898-1.181-2.706
				c-0.708-1.075-1.946-2.634-2.364-4.502c-0.532-2.374-0.169-4.51-2.955-4.809c-1.25-2.638-0.551-7.255-3.546-8.112
				c0.131-2.012-0.907-3.952-1.183-6.007c-0.076-0.581,0.213-1.533,0-2.106c-0.612-1.651-2.166-1.693-3.546-3.003
				c-0.599-0.568-1.053-2.221-1.772-2.401c-1.313-0.345-3.132,0.695-3.548,1.8c-0.608,1.621-0.104,10.584,0.891,12.618
				c0.571,1.171,1.85,1.478,1.771,2.702c-1.227,1.964-3.386,2.968-5.025,4.51c-0.053,2.447,0.336,5.343-1.771,5.71
				c1.047,0.812,0.355,2.416,0.589,3.003c0.483,1.216,2.291,1.924,2.068,3.304c-0.393,2.46-4.028,6.534-0.296,8.713
				c0.306,1.432-0.295,2.383-0.591,3.309c-0.237,0.747-0.462,1.95-1.181,2.403c0.353,1.05,1.408,2.063,1.479,3.306
				c0.074,1.318-1.082,2.47-1.183,3.906c-0.084,1.181,0.526,2.451,0.592,3.604c0.115,2.043-0.644,3.917,0,5.71
				c-3.694,4.757-9.492,7.374-14.481,10.813c-2.471-1.898-4.793,1.007-7.386-0.902c-0.713-1.136-1.172-2.721-2.366-3.605
				c-1.425-1.05-3.411-0.764-5.024-1.496c-0.833-0.384-1.06-0.889-1.771-1.507c-1.829-1.577-3.518-3.46-5.615-5.104
				c3.295-6.151-3.743-14.486,0.592-19.835c0.163-1.741-1.246-2.926-1.478-4.805c-0.22-1.758,0.701-3.442,0.591-5.111
				c-0.143-2.134-1.23-3.165-2.365-4.807c0-0.799,0-1.603,0-2.403c-1.04-1.284-1.641-1.677-2.365-3.901
				c-0.463-1.429-0.727-1.872,0-3.006c1.578-2.453,3.633-6.93-0.294-9.32c0.14-3.42,0.375-7.986-0.295-11.116
				c5.103-0.205,6.021-4.653,0-4.501c0.216-1.597,1.571-2.985,2.067-5.108c0.184-0.78-0.176-1.83,0-2.71
				c0.47-2.344,2.612-3.431,2.661-4.805c0.046-1.345-0.909-2.646-2.069-3.307c-0.097-2.206-0.732-3.864-1.773-5.105
				c0.484-2.027-1.158-3.219-1.477-5.111c-0.242-1.422,0.42-2.953,0-4.506c-0.39-1.449-2.43-2.04-2.956-3.605
				c-0.241-0.716,0.121-2.154,0-3.304c-0.339-3.192-2.353-5.626,0.295-8.708c1.565,0.766,4.445,2.196,5.616,0
				c0.404-1.376-0.545-2.939-0.296-4.207c0.402-2.057,2.613-2.244,2.069-5.714c-0.254-1.623-1.329-2.083-2.66-3.907
				c0.13-2.672,0.632-4.966,2.067-6.31c-0.274-4.181,3.568-6.52,4.433-10.515c1.084-0.1,1.643,0.331,2.366,0.601
				c0.877-0.711,1.652-1.525,2.068-2.705c3.086,0.137,3.81-2.135,4.728-4.208c1.014,0.485,0.911-0.479,1.773-0.599
				c1.104-0.155,2.208,0.764,2.955,0.599c2.134-0.465,2.557-2.294,3.545-4.504c1.335,0.046,3.129-0.377,3.253,0.9
				c5.191-1.005,7.924,2.104,9.75,5.409c1.972,0.505,3.492,1.068,4.136,2.403c1.194,2.469-1.167,6.243,1.774,7.513
				c0.224,5.109,3.16,9.983,5.023,14.422c-1.784,1.384-1.357,3.656-1.181,7.217c0.054,1.125,0.07,2.772,0.294,3.302
				c0.871,2.055,3.799,2.055,3.842,4.807c0.015,0.88-0.894,1.142-1.183,1.804c-0.637,1.457-0.158,3.065-1.182,4.503
				c1.48,1.459,0.842,3.987,1.479,6.011c0.244,0.782,1.026,1.521,1.181,2.405c0.316,1.793-0.475,3.783,0.296,5.707
				c0.749,1.138,2.76,1.007,3.842,1.804c0.07,3.733-1.509,5.336-1.183,9.609c1.041,0.9,1.244,2.435,2.069,3.611
				c0.375,0.533,1.141,0.89,1.477,1.498c0.546,0.984,0.62,2.311,1.182,3.307c0.245,0.43,0.829,0.795,1.183,1.199
				c0.298,0.349,1.055,0.996,1.182,1.208c0.974,1.569,0.845,3.864,3.25,4.202c0.087,2.352,0.514,6.868,4.138,6.612
				c1.123,1.715,1.417,4.79,3.544,4.803c3.017,0.023,2.92-5.709,2.958-8.106c0.067-4.595,1.829-12.38-0.593-15.322
				c0.393-0.706,0.503-1.698,0.888-2.408c-1.497-2.138-0.065-3.623,0-5.705c0.023-0.786-0.546-1.322-0.592-2.104
				c-0.033-0.519,0.483-1.61,0.592-2.403c0.201-1.478-0.175-3.235,0-4.51c0.222-1.612,0.689-5.109,0.294-7.806
				c-0.08-0.561-0.408-0.988-0.589-1.505c-0.111-0.313,0.172-0.936,0-1.204c-0.163-0.253-0.501,0.135-0.593-0.305
				c-0.254-1.22-0.361-3.016-0.296-3.897c0.068-0.896,0.69-1.48,0.889-2.408c0.148-0.716-0.083-1.737,0-2.704
				c0.256-3.082,1.467-5.487,1.181-9.616c-0.151-2.164-1.208-4.33-0.886-6.31c0.149-0.926,1.192-1.517,1.476-2.403
				c0.82-2.572,0.587-6.365,1.183-9.616c0.659-3.604,1.727-6.431,1.477-9.915c1.374-0.907,1.251-3.336,2.66-4.207
				c-0.203-2.842,0.874-4.404,0.592-6.311c-0.093-0.619-0.707-0.989-0.592-1.802c0.396-2.808,4.043-4.118,4.137-6.61
				c0.033-0.88-0.791-1.795-0.886-2.703c0.022-1.581,1.592-1.585,1.477-3.306c4.575-0.964,1.902-5.308,2.068-9.614
				c1.454-0.525,2.638-1.325,3.844-2.103c1.016-3.938-1.708-5.331-1.184-9.616c0.79-0.535,1.888-1.076,2.364-2.103
				c0.959-2.053,1.256-4.031,2.661-5.41c0.536-0.522,1.072-0.501,1.772-1.202c0.812-0.811,2.021-2.247,3.253-3.304
				c2.078-0.185,4.19,0.49,5.908,0C257.476,48.444,258.917,45.973,261.526,46.571z"/>
			<path fill-rule="evenodd" clip-rule="evenodd" fill="#E31C23" d="M403.29,31.249c1.379,0.299,2.615,0.745,4.431,0.601
				c0.972,1.915,1.357,4.426,2.067,6.61c-1.191,1.897-0.392,4.142-0.588,7.211c1.22,0.759,2.3,1.665,3.842,2.103
				c0.534,1.633-1.058,2.28,0,2.705c-0.303,0.695-0.597,1.396-1.479,1.501c-0.262,3.242-3.855,5.658-2.068,8.712
				c0.849,1.455,1.673,2.708,3.547,3.605c-0.589,2.303,1.011,2.378,1.772,3.308c0.196,2.301-0.48,3.715-0.592,5.706
				c-0.855,0.642-2.986,1.355-3.25,3.007c-0.33,2.036,2.583,3.824,2.362,6.61c-0.059,0.765-0.528,0.524-0.886,1.203
				c-1.259,2.402-1.441,6.234,1.48,6.608c-0.329,3.432,1.492,7.242-0.594,9.917c-6.253-0.452-6.092,5.621-7.386,10.214
				c-0.008,0.994-1.247,0.737-1.477,1.504c-0.239,1.961,0.006,3.542,2.364,3.304c1.195-0.121,1.591-2.016,2.953-2.703
				c0.979-0.494,2.344-0.118,3.253-0.602c1.967-1.045,1.95-2.934,2.364-4.207c2.403-0.696,4.159,0.354,6.5-0.301
				c1.807-0.505,2.9-2.625,5.911-2.401c2.819,0.207,4.152,2.747,6.206,3.907c0.898,0.504,2.094,0.557,2.954,1.199
				c1.041,0.775,3.538,1.123,5.319,2.104c0.408,2.998,3.04,3.922,6.206,3.304c0.489,1.287-1.144,2.832-1.182,3.907
				c-0.004,0.132,0.371,1.994,0.296,1.804c0.533,1.35,2.72,2.704,3.25,4.205c1.72,4.862-1.601,6.102-2.364,9.616
				c-0.324,1.493,0.031,3.39,0.298,5.407c0.563,0.627,1.77,0.604,1.771,1.81c-0.831,1.994-2.149,3.207-0.885,5.705
				c0.036,0.071,0.452,0.357,0.589,0.602c0.363,0.631,0.635,1.637,1.183,2.7c0.647,1.262,1.979,2.438,1.771,4.811
				c-0.113,1.308-1.501,2.588-1.478,3.908c0.017,0.854,0.989,1.881,1.182,2.999c0.16,0.93-0.187,2.261,0,3.611
				c0.26,1.841,1.43,3.576,1.478,5.703c0.043,1.883-0.612,4.358,2.068,4.812c-0.427,2.048,0.501,4.477,1.774,5.707
				c-0.221,2.11,0.298,3.897,0,5.712c-0.396,2.411-2.431,4.285,0.295,6.605c0,0.5,0,1.005,0,1.505
				c0.137,0.637-0.421,0.573-0.888,0.6c0.039,1.237-0.514,1.881-0.293,3.302c-2.849,1.717-1.56,7.634-4.139,9.616
				c0.231,1.34-0.391,1.808-0.295,3.007c-1.952,0.421-3.924,0.815-4.728,2.401c-0.065,1.868,0.971,2.619,0.594,4.809
				c-2.094,0.653-5.456,0.461-6.503-0.898c-1.232-0.149-1.302,0.878-2.659,0.598c0.229-3.24-1.946-4.032-1.773-7.21
				c-0.6-0.395-0.705-1.285-1.182-1.808c0.231-2.049-0.33-2.852,0-4.498c0.364-1.826,2.487-3.318,2.66-5.111
				c0.106-1.103-0.765-2.077-0.888-3.005c-0.162-1.233,0.414-2.584,0.297-4.207c-0.227-3.111-2.36-4.809-1.182-6.909
				c0.096-0.172-0.137-0.782,0-0.903c0.065-0.062,0.561,0.075,0.591,0c0.924-2.258,1.063-5.694,0.888-8.112
				c-0.083-1.123-0.759-2.138-0.888-3.304c-0.146-1.322,0.129-2.752,0-4.207c-0.063-0.729-0.462-1.103-0.591-1.802
				c-0.376-2.036,0.56-5.091,0-8.115c-0.227-1.216-1.165-2.208-1.478-3.604c-0.24-1.079,0.004-3.014-0.296-4.508
				c-0.424-2.113-1.332-3.551-0.295-6.006c0.075-0.878-0.556-1.042-0.886-1.504c-0.372-2.522-0.959-3.761-1.772-6.312
				c-0.174-0.548-0.738-1.019-0.887-1.5c-0.667-2.13-0.725-4.265-1.478-5.709c-0.391-0.747-1.069-1.146-1.476-1.804
				c-0.073-2.127-0.051-4.355-1.774-4.806c-4.657,3.379-10.517,5.528-11.524,12.616c-2.489,3.279-6.934,4.57-6.797,10.52
				c-2.985,0.768-2.615,4.956-3.842,7.509c0.175,1.027,0.813,1.583,0.887,2.706c-0.399,0.295-0.383,1.016-0.887,1.2
				c0.493,2.654-1.236,4.624-1.477,7.216c-0.125,1.333,0.552,2.702,0.592,4.205c0.106,4.161-0.337,9.427,0,13.216
				c0.172,1.953,0.664,3.12-0.592,4.813c-0.932-0.146-1.045,0.537-2.068,0.301c-1.544,2.129-3.626,3.721-4.728,6.307
				c-4.633,3.196-13.196,2.283-14.481-3.601c-3.239-1-5.963,1.031-4.728,4.805c0.406,1.239,1.759,1.909,2.069,3.304
				c0.212,0.953,0.169,2.785,0,3.902c-0.086,0.564-0.763,0.979-0.886,1.505c-0.166,0.695,0.214,1.891,0,2.704
				c-0.321,1.203-0.589,3.138-0.297,5.41c0.513,0.979,2.061,0.909,2.662,1.8c-0.226,2.667,0.916,5.076-0.592,6.612
				c1.771,2.177,0.13,4.62,0.296,6.911c0.042,0.589,0.738,1.243,0.885,2.104c0.203,1.183-0.518,2.563-0.295,3.308
				c0.329,1.09,2.152,1.625,2.66,2.7c0.902,1.905-0.956,4.19-0.295,6.612c0.345,1.265,2.078,1.71,2.658,2.702
				c0.56,2.279-0.991,3.777-0.589,6.308c0.227,1.442,1.863,1.889,1.477,4.512c-0.191,1.3-1.328,2.032-1.772,3.302
				c-0.221,0.634,0.162,1.604,0,2.403c-0.192,0.94-1.075,1.752-1.181,2.401c-0.267,1.588,0.222,3.67,0,5.413
				c-0.21,1.625-1.143,2.962-1.184,4.2c-0.048,1.494,0.973,2.879,0.887,4.216c-0.096,1.492-1.913,2.992-1.181,4.503
				c-1.696,1.482-3.109,3.255-3.841,5.71c-1.807,1.17-2.966,2.997-3.548,5.408c-2.561,1.603-6.417,1.887-7.682,4.805
				c-1.681-0.478-3.322-0.017-4.728-0.602c-1.161-0.479-1.658-1.796-2.662-2.101c-0.813-0.247-1.487,0.359-2.363,0.301
				c-0.654-0.046-2.025-0.469-2.955-0.604c-1.274-0.181-1.935-1.708-2.659-3.003c-0.868-1.547-3.956-4.245-5.618-5.708
				c-0.1-0.091-0.22-0.552-0.293-0.6c-0.785-0.521-2.424-0.596-3.546-1.208c-0.724-0.386-0.797-1.073-1.478-1.199
				c-1.644-0.299-3.363,0.577-4.726,0.303c-1.632-0.336-3.071-2.362-5.026-2.405c-0.966-0.025-1.411,0.627-2.659,0.596
				c-0.865-0.12-0.824-1.312-1.184-1.8c-0.358-0.485-1.558-0.529-1.181-1.502c-1.733-0.561-3.395-0.603-4.729-0.895
				c-1.047-0.845-1.275-2.51-1.773-3.91c4.158-1.393,8.432-0.501,12.116-1.204c0.861-0.164,1.751-0.815,2.658-0.9
				c0.507-0.044,1.469,0.415,2.07,0.301c1.299-0.245,2.285-1.258,3.546-1.501c1.176-0.232,2.315,0.442,3.547,0
				c1.15-0.413,1.432-1.793,2.364-2.405c0.863-0.568,4.316-1.937,5.318-2.104c0.886-0.147,1.9,0.278,2.66,0
				c0.873-0.315,3.325-2.625,4.138-3.903c0.685-1.077,0.518-2.617,1.478-3.605c1.061-1.096,2.935-0.817,3.546-2.702
				c0.354-1.1-0.359-1.998-0.295-3.007c0.043-0.686,0.503-0.313,0.59-0.604c0.054-0.176-0.461-0.529-0.295-0.9
				c0.329-0.737,1.241-1.079,1.478-2.103c-0.114-1.154-0.32-2.071,0-3.306c0.169-0.654,0.923-0.949,1.182-1.499
				c0.798-1.712,1.021-5.226,1.183-7.813c0.06-0.963,0.143-2.437,0-3.309c-0.183-1.096-1.241-2.488-0.297-4.506
				c-3.759-4.464-2.947-12.022-4.136-18.629c-0.405-1.31,1.143-0.642,0.885-1.797c-0.543-3.056-0.774-6.426-2.66-8.117
				c-0.009-1.596-0.024-3.178-0.887-3.906c-1.676-0.1-1.394,1.789-2.067,2.702c-1.908,0.372-1.941,2.639-3.25,3.605
				c-2.924,0.135-4.204,1.937-4.728,4.512c-4.145,1.494-8.011,3.279-9.458,7.511c-4.362,1.372-6.06,5.454-11.818,5.409
				c-3.618-6.138-9.029,1.689-15.073,0c0-0.601,0-1.204,0-1.804c-0.871-1.221-2.354-0.907-3.547-1.501
				c-2.478-1.23-4.362-3.621-7.09-4.508c0.973-4.309-0.116-6.471-2.07-9.314c-1.598-2.33-2.955-4.028-4.431-6.312
				c-0.049-0.948,0.784-1.006,0.589-2.1c-1.604-2.777-3.423-5.336-4.135-9.018c1.153-1.233,2.839-1.914,2.955-4.205
				c-2.237-2.059-4.873,1.31-3.547,3.906c-1.471-0.395-1.256,0.925-2.365,0.898c0.238,1.706,0.052,5.417-1.182,6.612
				c1.327,2.361,2.132,5.246,1.774,9.314c-0.789,1.199-2.385,1.583-3.842,2.103c-0.839,1.644,0.686,2.577,0.591,4.211
				c-0.109,1.851-2.357,3.769-0.295,6.006c-0.933,1.523-2.267,3.763-2.957,6.011c-0.583,1.903-0.368,3.505-1.477,4.805
				c-1.08,1.27-2.107,3.479-2.955,5.408c-0.098,1.206,0.525,1.673,0.295,3.007c-5.917-1.011-6.136,3.777-10.046,4.805
				c-1.348-0.832-1.53-2.85-2.661-3.901c-1.555-0.28-1.564,1.009-2.661,1.199c-2.411-0.45-3.396-2.352-5.613-3.007
				c0.202-1.094,0.411-2.186,0.295-3.601c-2.08-2.593-0.877-8.526-5.022-9.016c-0.982-4.805,2.953-8.794,1.772-12.92
				c0.31-1.351,1.749-1.158,2.068-2.702c-0.019,0.089-0.311-4.294-0.591-5.109c-0.388-1.129-1.75-1.619-1.772-2.405
				c0.813-4.587,2.76-8.012,5.32-10.819c-0.802-3.587-4.746-3.985-6.502-6.608c-0.552-3.973,3.252-4.423,4.138-6.608
				c1.199-2.968-2.482-4.954-1.478-9.32c0.379-1.183-0.861-0.72-0.885-1.498c1.301-1.979,1.867-4.707,2.363-7.509
				c1.502-0.882,2.484-2.281,3.544-3.607c-0.139-2.044-1.64-2.071-1.477-3.904c0.08-0.896,0.37-0.021,0.885-0.901
				c0.253-0.434,0.05-0.855,0.297-1.204c0.375-0.536,1.161-0.828,1.479-1.503c0.281-0.61-0.005-1.619,0.295-2.407
				c0.634-1.652,1.969-2.2,2.069-2.999c0.178-1.455-0.232-2.1-1.184-3.609c2.358-2.31,2.222-7.158,4.137-9.916
				c1.099-0.487,2.909-0.249,4.433-0.301c0.826,1.162,1.23,2.754,2.662,3.305c1.302,0.123,1.691-0.682,2.362-1.204
				c1.455,0.327,2.754,0.809,4.433,0.904c0.849,0.741,1.034,2.153,2.364,2.404c-0.159,3.304,1.943,6.675,0.297,9.313
				c-0.616,0.988-1.619,1.7-1.184,3.908c0.287,1.444,2.899,3.854,4.14,4.209c1.405,0.396,2.567,0.058,3.84-0.901
				c3.364,1.405-0.067,7.507,0.887,10.211c0.527,1.505,2.2,1.266,3.249,3.005c0.684,1.134,0.008,3.24,1.479,4.203
				c3.136-1.206,4.665-4.06,5.022-8.113c1.064-1.023,1.795-2.376,1.771-4.501c0.792,0,0.646-0.951,1.48-0.899
				c0-1.104,0-2.204,0-3.308c0.78-1.573,2.556-1.739,4.431-2.702c1.967-1.015,3.181-2.916,5.023-3.605
				c-0.231-1.243,0.454-1.546,0.297-2.704c1.732-0.347,2.547-1.617,2.955-3.308c1.703-0.774,4.224-0.713,4.433-3.006
				c2.945-1.177,6.285-0.089,8.865-0.901c1.478-0.465,2.419-2.38,3.842-2.702c1.114-0.254,2.264,0.342,3.25,0
				c1.349-0.473,2.006-1.836,2.957-2.704c3.057,0.2,7.508-0.127,9.75,1.5c4.181,0.059,7.663,0.819,10.048,2.706
				c0.157,1.19,1.353,3.339,0,4.206c1.123,1.13,0.839,2.491,2.364,2.701c1.475,0.211,3.173-2.659,4.728-1.499
				c0.897,0.668,0.934,1.326,1.773,2.702c0.49,0.805,1.596,1.679,1.773,2.405c0.269,1.1-0.455,2.58,0,3.906
				c0.79,2.301,4.466,3.378,6.797,0.898c0.578-1.063-0.386-1.087-0.296-2.401c1.864-2.852,0.754-6.34-2.068-7.511
				c0.359-2.64,0.064-4.633-0.296-6.91c-0.269-1.7-0.885-2.458-0.296-4.509c0.3-1.044,1.213-2.422,0.886-4.507
				c-0.293-1.88-1.756-2.651-2.658-4.808c-0.045-0.554-1.002-0.185-1.183-0.601c-0.701-3.623-2.101-6.108-1.477-9.616
				c0.202-1.141,1.334-2.127,1.477-3.303c0.505-4.158-2.953-7.136-2.365-11.719c2.021-0.825,5.686-2.144,5.912-4.507
				c0.178-1.895-1.224-2.619-2.364-4.205c0.794-2.504-1.48-3.691-1.775-5.409c-0.299-1.752,0.883-3.242,0.297-5.408
				c1.025-1.362,2.123-2.647,2.364-4.808c-0.321-1.075-1.446-1.333-2.364-1.806c-0.325-0.519-0.426-1.449-0.886-2.102
				c-0.207-0.285-0.861-0.28-1.184-0.6c-0.534-0.529-0.611-1.837-0.886-2.102c-0.235-0.229-0.992,0.002-1.479-0.301
				c-0.699-0.438-1.113-1.605-1.475-1.802c-1.026-0.555-2.335-0.59-3.548-0.901c0-1.704,0-3.407,0-5.108
				c2.063-1.006,3.699-2.449,4.434-4.807c1.445-0.37,1.146,1.036,2.362,0.9c4.88-0.382,2.143-6.265,0.887-8.713
				c-0.458-1.068,1.004-0.18,0.888-0.902c-0.068-1.571,0.004-3.001,0.295-4.206c2.284-0.983,4.905-1.623,7.386-2.403
				c0.522-1.537,0.694-2.248,0.889-3.607c1.33-0.446,2.311,0.882,3.546,0.902c1.101,0.018,1.987-0.879,3.546-1.202
				c3.011-0.625,7.636,1.567,7.977-3.304c0.715,0.161,1.483-0.216,2.071,0c0.908,0.334,1.687,2.429,2.364,3.304
				c0.355,0.462,0.383,0.922,0.588,1.202C402.014,29.928,403.155,30.142,403.29,31.249z M349.208,143.324
				c-3.653,1.017-8.038-0.919-12.407,0.297c-1.56,1.166-2.258,2.281-4.14,3.003c-1.315,0.511-2.96,0.112-4.137,0.907
				c-1.562,1.05-1.142,2.945-1.772,4.805c-0.023,0.064-0.53-0.05-0.593,0c-0.138,0.123,0.097,0.737,0,0.901
				c-1.006,1.725-1.573,4.545-1.771,6.612c0.18,0.911,1.325,0.853,0.885,2.399c-1.28,0-2.561,0-3.84,0
				c-0.724,1.251-1.51,1.839-1.774,3.011c-0.338,1.488,0.566,2.912,0.295,4.205c-0.304,1.448-2.115,2.165-2.661,3.906
				c-0.453,1.45-0.018,2.086,0,3.903c-1.716,1.26-1.082,3.242-1.477,5.411c-0.298,1.638-1.02,2.177-0.886,3.302
				c0.117,0.994,1.785,2.584,2.07,4.209c0.161,0.922-0.221,2.191,0,2.706c0.739,1.713,3.064,2.023,3.838,3.302
				c0.131,3.495,0.852,5.106,2.958,6.608c1.41,1.011,4.251,2.923,5.908,2.702c0.868-0.105,1.91-1.357,2.662-1.799
				c1.755-1.029,4.362-1.779,5.023-3.602c0.61-0.585,0.563-1.832,0.887-2.706c3.077-2.283,6.221-4.495,9.458-6.614
				c0.554-1.237,1.321-2.265,2.364-3.001c0-0.602,0-1.204,0-1.806c0.632-0.407,2.737-1.767,2.953-2.099
				c0.381-0.6,1.019-3.571,1.478-4.211c0.556-0.771,1.019-2.096,1.182-3.005c0.306-1.697,0.671-4.309,0.592-5.705
				c-0.056-0.978-0.574-1.802-0.592-2.704c-0.024-1.449,0.695-2.838,0.296-4.209c-0.886-0.501-2.536-0.225-3.544-0.603
				c-1.363-3.654-1.323-6.263-1.185-10.514c0.963-1.027,3.128-0.824,4.433-1.503c0.582-0.807,0.178-2.619,0.296-3.904
				C353.452,146.417,351.879,144.312,349.208,143.324z M374.623,167.66c0.074,0.662,0.739,1.103,0.886,1.804
				c0.345,1.636-0.27,2.993,0,4.205c0.843,0.548,1.208,1.577,2.955,1.203c1.264-1.926,1.341-5.049,1.772-7.81
				c-0.622-1.019-1.544-1.14-2.067-2.407c-0.517-1.249,0.126-3.138-0.886-4.203C374.854,160.498,374.287,164.622,374.623,167.66z"/>
			<path fill-rule="evenodd" clip-rule="evenodd" fill="#E31C23" d="M6.5,354.853c-0.196,0-0.391,0-0.589,0
				c-1.596-1.451-3.981-3.458-4.433-5.714c-0.058-0.29,0.636-0.224,0.591-0.602c-0.006-0.042-0.605-0.106-0.591-0.598
				c0.016-0.523,0.384-1.198,0.295-1.806c-0.114-0.791-0.721-1.333-0.888-2.104C0.52,342.334,1.198,340.32,0,338.321
				c0-0.598,0-1.199,0-1.803c0.778-1.348,2.291-2.468,3.25-4.201c0.396-0.718,0.392-1.793,0.888-2.706
				c0.606-1.127,1.72-1.385,2.068-2.407c0.372-1.088,0-2.403,0.294-3.605c0.374-1.513,1.019-2.333,1.773-3.302
				c-1.022-3.267,2.912-5.29,1.479-9.016c0.957-1.534,2.125-2.846,2.658-4.809c-0.915-2.737-0.219-4.674,0.592-7.514
				c0.883-3.088,1.599-5.574,1.773-8.411c0.104-1.686-0.25-3.512,0-4.805c0.318-1.652,2.102-3.032,2.067-4.809
				c-0.038-1.974-2.025-3.744-1.771-5.71c0.215-1.656,2.214-2.899,2.659-4.809c0.273-1.166-0.168-2.472,0-3.603
				c0.378-2.56,1.698-4.19,2.956-5.71c0-0.9,0-1.806,0-2.7c2.58-1.675,1.989-3.885,1.182-6.917
				c-0.304-1.138-0.817-2.418-0.886-3.604c-0.063-1.088,0.494-2.346,0.591-3.602c0.14-1.845-0.383-3.482,0-4.508
				c0.531-1.426,2.07-1.817,3.251-3.304c-0.204-3.217,2.208-3.765,1.478-7.516c-0.616-0.473-0.579-1.614-1.773-1.498
				c1.199-1.09-0.184-0.625-0.885-1.204c0.399-0.998,0.839-1.546,1.181-2.106c0.048-0.074,0.186-0.768,0.295-0.9
				c1.192-1.413,2.559-1.326,3.252-3.003c0.444-1.073,0.494-1.855,0-3.605c1.419-1.38,1.443-2.374,2.068-4.204
				c0.935-2.746-0.916-5.515-0.295-8.717c0.263-1.364,1.43-2.007,1.771-3.602c0.272-1.271-0.09-2.066,0-3.606
				c0.827-2.265,2.771-3.397,2.955-6.312c1.035-0.349,1.695-1.086,2.363-1.804c-0.734-3.709,1.063-5.692,0.887-9.615
				c1.339-0.461,1.667-1.465,2.365-2.104c1.124-1.023,0.417,0.114,0.296-1.199c-0.094-0.992,1.254-1.833,1.18-2.406
				c-1.759-5.532,5.088-9.984,3.549-17.126c0.97-0.614,2.807-0.349,3.545-1.202c0.702-2.289,2.462-3.505,2.068-6.909
				c1.723-1.253,2.892-3.071,3.842-5.103c-1.107-2.563-1.338-5.492,0-7.518c0.869-1.313,2.935-1.563,3.841-3.005
				c0.409-0.646,0.282-2.214,0.592-3.004c0.082-0.212,0.783-0.375,0.886-0.603c1.134-2.514,1.868-4.18,1.773-6.607
				c0.808-0.285,1.325-1.157,1.771-1.504c1.486-1.153,1.269-3.45,2.958-4.507c1.077-0.675,2.622-0.25,3.545-0.902
				c1.04-0.731,1.053-2.315,1.772-2.703c0.347-0.185,2.863-0.63,3.843-0.6c0.671,0.019,1.389,0.618,2.068,0.6
				c1.278-0.029,3.089-0.866,4.138-0.6c1.637,0.412,3.256,3.348,4.728,3.604c1.249,2.836,2.252,5.922,3.842,8.414
				c-0.603,1.206-1.064,2.517-0.887,3.905c0.101,0.802,0.563,0.708,0.887,1.203c0.139,0.214-0.031,0.96,0.591,1.203
				c-0.944,3.97,0.032,8.756,0.886,12.322c0.211,0.884,0.061,2.229,0.295,3.003c0.603,1.986,2.125,3.304,2.068,4.811
				c-0.046,1.229-1.063,2.299-1.182,3.601c-0.082,0.893,0.64,1.885,0.59,3.005c-0.036,0.824-0.635,1.34-0.59,2.102
				c0.026,0.43,0.478,0.864,0.59,1.507c0.11,0.604-0.125,1.545,0,2.104c0.297,1.318,1.04,2.298,1.183,3.597
				c0.114,1.061-0.174,2.242,0,3.311c0.339,2.088,1.671,4.089,2.068,6.31c0.294,1.647-0.262,3.217,0.591,4.805
				c-0.893,1.732-2.868,4.028-2.069,6.311c0.661,1.887,2.701,0.619,3.25,2.707c-0.394,1.465-2.034,1.413-2.658,3.007
				c-0.658,1.667,0.211,3.904,0.294,6.604c0.032,1.072-0.417,2.106-0.294,3.005c0.391,2.899,2.272,6.149,3.843,6.61
				c1.823,0.537,3.187-1.02,4.133-1.503c1.403-0.725,2.137-0.795,2.957-1.503c1.342-1.147,3.667-0.902,5.32-1.203
				c-1.063,1.739-0.451,3.947-1.478,6.011c-0.883,1.78-3.522,3.114-4.728,5.109c-0.775,1.276-1.093,2.719-1.182,4.508
				c-2.974,1.376-4.587,4.977-3.843,7.81c0.114,0.436,0.396,0.042,0.591,0.303c1.48,1.943,1.041,2.331,0.885,4.506
				c-0.076,1.073-0.264,2.294-0.294,3.302c-0.052,1.746-0.271,3.941,0,5.413c0.439,2.389,2.047,3.318,2.365,6.011
				c1.015,0.465,1.798,1.175,2.66,1.801c-0.101,1.684,1.401,2.106,1.772,3.604c0.153,0.629-0.332,1.27-0.297,2.11
				c0.032,0.666,0.555,1.237,0.59,1.798c0.092,1.4-0.361,2.922,0,3.909c0.49,1.316,2.365,2.364,3.251,3.002
				c-0.764,0.568-0.368,1.473,0,2.403c-1.5,2.301-1.906,4.91-2.658,7.511c-1.252,4.329-3.04,6.701-4.138,10.818
				c-5.146,2.703-11.388,0.229-16.55-1.203c-3.542-3.219-9.569-3.796-15.366-3.304c-5.087-3.847-14.226-3.56-21.867-4.81
				c-1.479,0.721-2.708,2.355-4.433,3.305c-0.652,0.363-1.483,0.259-2.363,0.6c-1.993,0.784-3.554,2.916-5.024,3.313
				c-1.502,0.39-2.878-0.712-4.432,0c-0.904,1.732,0.382,2.98,0.295,4.807c-1.946,1.339-3.34,2.553-3.251,4.805
				c0.062,1.521,1.815,3.138,1.773,4.809c-0.038,1.496-1.675,2.945-2.069,4.2c-0.606,1.937-0.37,5.168-1.477,7.511
				c-0.427,0.916-1.63,1.339-2.068,2.104c-0.501,0.883-0.728,2.493-1.183,3.609c-0.596,1.466-1.095,2.341-1.182,3.607
				c-0.08,1.151,0.653,2.453,0.591,3.603c-0.113,2.057-1.851,3.545-2.956,5.708c-1.922,3.761-1.457,6.311-0.588,10.221
				c-2.902,1.844-3.145,5.928-5.32,7.808c-0.929,0.806-1.285,1.034-2.07,2.406c-0.325,0.564-0.857,0.734-1.182,1.201
				c-0.75,1.075-1.021,2.11-1.772,2.704c-0.604,0.478-1.303,0.289-2.068,0.598c-0.625,0.26-1.28,0.708-1.772,0.907
				C8.585,353.506,7.329,353.669,6.5,354.853z M72.696,226.546c1.076-0.574,2.531,0.081,3.546-0.295
				c1.493-0.556,3.881-3.11,4.138-4.508c0.243-1.321-0.701-2.802-0.887-4.202c-0.125-0.937,0.099-1.953,0-3.008
				c-0.171-1.832-1.093-3.789-1.183-5.408c-0.09-1.644,0.965-3.252,0-5.109c-0.423-0.472-1.539-0.234-1.477-1.204
				c0.548-2.691-0.033-4.676,0.295-6.305c0.096-0.472,0.752-0.841,0.886-1.204c1.172-3.154-0.436-5.834-1.181-7.511
				c-0.358-0.808-0.552-1.772-0.887-2.405c-0.741-1.399-3.278-2.977-2.363-6.009c-3.169-1.264-2.581-10.209-7.092-6.612
				c-0.338,0.274-0.474,1.306-1.183,2.403c-0.528,0.822-1.578,1.571-1.775,2.104c-1.3,3.593,0.229,7.634,1.775,8.713
				c-0.471,1.874-3.029,3.069-1.775,5.712c-3.062,0.618-2.286,3.461-3.545,5.709c-0.502,0.895-2.002,1.43-2.658,2.403
				c-0.361,0.538-0.5,1.992-1.184,3.001c-0.936,1.389-1.876,1.553-2.065,2.403c-0.146,0.646,0.58,1.627,0.589,2.702
				c0.007,0.824-0.586,1.472-0.589,2.108c-0.011,1.514,0.984,3.261,0.589,4.81c-0.578,2.249-4.906,3.466-3.252,7.81
				c-0.824,0.996-1.398,3.134-1.77,4.207c-0.333,0.95-0.122,1.716-0.297,3.005c-0.268,1.959-1.557,3.563-0.296,6.013
				c-2.078,3.276-4.353,9.244-0.295,11.716c1.63-0.302,1.922-2.333,3.841-1.505c0.605-1.789,3.1-1.658,4.433-2.702
				c0.439-1.131,0.678-1.108,0-2.104c0.806,0.222,0.595-0.596,1.182-0.6c-0.045-2.128,0.658-4.045,2.069-5.108
				c1.351-1.019,3.586-0.434,5.023-1.199c0.574-0.313,0.304-1.306,1.183-1.204c1.095,0.212,1.267-0.519,2.363-0.303
				C70.523,230.985,70.857,227.542,72.696,226.546z M78.014,245.18c-1.21,0.707-2.832,0.585-3.544,1.203
				c-1.46,1.258-1.689,3.628-3.251,4.805c-0.782,0.587-2.067,0.649-2.957,1.204c-0.519,0.321-1.153,1.286-1.771,1.799
				c-1.735,1.449-2.484,1.588-2.663,3.904c-1.97,1.199-3.189,3.169-5.613,3.91c-0.859,2.23-3.234,2.92-5.025,4.207
				c-1.15,0.528-2.675,0.683-2.364,2.706c1.827,0.672,2.897,3.702,5.615,4.501c1.643,0.488,4.348,0.26,6.502,0.604
				c2.167,0.353,4.283,1.135,5.91,1.201c2.712,0.116,4.627-1.369,6.502-2.104c0.708-0.116-0.165,1.368,0.885,0.903
				c4.61-0.557,8.08-1.023,9.457-3.607c0.559-1.048,0.957-5.288,0.886-6.004c-0.173-1.772-1.199-3.235-1.182-5.114
				c0.012-1.295,0.853-2.839,0.593-4.198c-0.313-1.627-2.444-2.752-2.662-4.211c-0.152-1.02,0.672-2.372,0.592-3.605
				c-0.157-2.372-1.457-3.691-2.069-5.109C79.999,242.394,79.549,244.287,78.014,245.18z"/>
		</g>
	</g>
</g>
</svg>
